<svg width="231" height="56" viewBox="0 0 231 56" fill="none" xmlns="http://www.w3.org/2000/svg">
<rect width="56" height="56" rx="28" fill="#A35C6A"/>
<path d="M39.4769 33.5339L35.4324 29.6277L31.3634 16.6658C31.2477 16.2967 31.0396 15.9609 30.7574 15.688C30.4752 15.4151 30.1277 15.2137 29.7456 15.1015C29.3635 14.9893 28.9587 14.9698 28.5669 15.0447C28.1752 15.1197 27.8086 15.2867 27.4997 15.5312C27.1908 15.2867 26.8243 15.1197 26.4325 15.0447C26.0408 14.9698 25.6359 14.9893 25.2538 15.1015C24.8717 15.2137 24.5242 15.4151 24.242 15.688C23.9598 15.9609 23.7517 16.2967 23.6361 16.6658L19.567 29.6288L15.5226 33.5339C15.188 33.8572 15 34.2955 15 34.7526C15 35.2096 15.188 35.648 15.5226 35.9713L19.1709 39.4938C19.3367 39.6539 19.5335 39.781 19.7502 39.8676C19.9669 39.9543 20.1991 39.9989 20.4336 39.9989C20.6682 39.9989 20.9004 39.9543 21.1171 39.8676C21.3337 39.781 21.5306 39.6539 21.6964 39.4938L27.0846 34.2881C27.2339 34.1436 27.3727 33.9891 27.4997 33.8259C27.6268 33.9891 27.7655 34.1436 27.9149 34.2881L33.303 39.4949C33.4688 39.655 33.6657 39.7821 33.8824 39.8687C34.0991 39.9554 34.3313 40 34.5658 40C34.8003 40 35.0326 39.9554 35.2492 39.8687C35.4659 39.7821 35.6628 39.655 35.8286 39.4949L39.4769 35.9724C39.6427 35.8123 39.7743 35.6222 39.864 35.413C39.9538 35.2038 40 34.9796 40 34.7531C40 34.5267 39.9538 34.3024 39.864 34.0932C39.7743 33.884 39.6427 33.694 39.4769 33.5339ZM20.4331 38.2751L16.7859 34.7536L18.2022 33.3862L21.8504 36.9088L20.4331 38.2751ZM26.6069 31.2441C26.6087 31.5841 26.5406 31.9211 26.4065 32.2356C26.2724 32.55 26.075 32.8356 25.8257 33.0759L23.1115 35.689L19.4644 32.1675L20.9877 30.6956C21.0917 30.5952 21.1684 30.4716 21.2109 30.3357L25.3402 17.1658C25.3821 17.0193 25.4781 16.8926 25.61 16.8096C25.7419 16.7266 25.9007 16.6931 26.0565 16.7154C26.2122 16.7376 26.3542 16.8141 26.4556 16.9304C26.557 17.0468 26.6108 17.1949 26.6069 17.3468V31.2441ZM29.1738 33.0759C28.9245 32.8356 28.7271 32.55 28.593 32.2356C28.4589 31.9211 28.3908 31.5841 28.3925 31.2441V17.3436C28.3926 17.1943 28.4482 17.05 28.5492 16.9369C28.6502 16.8239 28.7899 16.7496 28.9428 16.7277C29.0958 16.7058 29.2518 16.7376 29.3825 16.8174C29.5131 16.8972 29.6098 17.0197 29.6548 17.1626L33.784 30.3324C33.8266 30.4683 33.9033 30.592 34.0072 30.6923L35.6244 32.2537L31.8968 35.7019L29.1738 33.0759ZM34.5664 38.2751L33.1646 36.9206L36.891 33.4724L38.2135 34.7536L34.5664 38.2751Z" fill="white"/>
<path d="M81.632 15.088H76.032V37.392H73.568V15.088H68V12.784H81.632V15.088ZM99.3765 37.392H96.9445V26.768C96.9445 25.232 96.3792 23.9093 95.2485 22.8C94.1178 21.6693 92.7952 21.1253 91.2805 21.168C89.7445 21.1893 88.4432 21.712 87.3765 22.736C86.3312 23.7387 85.8085 25.0187 85.8085 26.576V37.392H83.2805V12.72H85.7445V21.744C87.1312 19.9307 88.9125 18.9707 91.0885 18.864C93.3498 18.7573 95.2912 19.504 96.9125 21.104C98.5552 22.704 99.3765 24.6773 99.3765 27.024V37.392ZM120.439 28.24V28.368V37.392H118.071V34.544C116.087 36.8053 113.655 37.8933 110.775 37.808C108.257 37.7227 106.113 36.752 104.343 34.896C102.572 33.04 101.687 30.832 101.687 28.272C101.687 25.6053 102.636 23.3227 104.535 21.424C106.433 19.504 108.705 18.5973 111.351 18.704C113.911 18.7893 116.087 19.7707 117.879 21.648C119.671 23.504 120.524 25.7013 120.439 28.24ZM118.007 28.048C117.964 26.128 117.281 24.4853 115.959 23.12C114.636 21.7547 113.047 21.072 111.191 21.072C109.249 21.072 107.596 21.7547 106.231 23.12C104.865 24.4853 104.172 26.1387 104.151 28.08C104.108 30 104.737 31.6853 106.039 33.136C107.361 34.5653 108.951 35.3227 110.807 35.408C112.812 35.4933 114.519 34.8 115.927 33.328C117.356 31.8347 118.049 30.0747 118.007 28.048ZM139.096 37.392H136.632V26.736C136.632 25.2 136.067 23.8773 134.936 22.768C133.827 21.6587 132.525 21.104 131.032 21.104C129.517 21.104 128.195 21.6587 127.064 22.768C125.955 23.8773 125.4 25.2 125.4 26.736V37.392H122.936V26.992C122.936 24.624 123.704 22.6613 125.24 21.104C126.776 19.5253 128.707 18.736 131.032 18.736C133.336 18.736 135.256 19.5253 136.792 21.104C138.328 22.6613 139.096 24.624 139.096 26.992V37.392ZM156.28 37.392H153.112L147.192 30.224L144.28 33.904V37.392H141.656V12.72H144.184V30.096L152.632 19.152H155.672L148.728 28.336L156.28 37.392ZM191.215 19.152L180.879 43.76H178.255L181.007 36.816L174.031 19.152H176.687L182.511 33.616L188.655 19.152H191.215ZM209.283 28.272C209.283 30.896 208.323 33.168 206.403 35.088C204.505 36.9867 202.243 37.8933 199.619 37.808C197.081 37.744 194.926 36.784 193.155 34.928C191.406 33.072 190.531 30.864 190.531 28.304C190.531 25.6373 191.481 23.3547 193.379 21.456C195.278 19.536 197.539 18.6187 200.163 18.704C202.702 18.7893 204.857 19.7707 206.627 21.648C208.398 23.504 209.283 25.712 209.283 28.272ZM206.851 28.08C206.787 26.16 206.094 24.5173 204.771 23.152C203.47 21.7867 201.891 21.104 200.035 21.104C198.094 21.0827 196.441 21.7653 195.075 23.152C193.71 24.5173 193.017 26.1707 192.995 28.112C192.953 30.032 193.582 31.7173 194.883 33.168C196.185 34.5973 197.774 35.344 199.651 35.408C201.657 35.5147 203.363 34.8213 204.771 33.328C206.201 31.8347 206.894 30.0853 206.851 28.08ZM227.878 29.552C227.878 31.92 227.11 33.8933 225.574 35.472C224.059 37.0507 222.139 37.84 219.814 37.84C217.489 37.84 215.558 37.0507 214.022 35.472C212.507 33.8933 211.75 31.92 211.75 29.552V19.152H214.214V29.84C214.214 31.376 214.769 32.6987 215.878 33.808C217.009 34.896 218.321 35.44 219.814 35.44C221.307 35.44 222.609 34.896 223.718 33.808C224.849 32.6987 225.414 31.376 225.414 29.84V19.152H227.878V29.552Z" fill="white"/>
</svg>
