<svg width="172" height="56" viewBox="0 0 172 56" fill="none" xmlns="http://www.w3.org/2000/svg">
<rect width="55" height="56" rx="27.5" fill="#A35C6A"/>
<path d="M38.5735 24.2933L36.4933 20.8216C36.0472 20.0776 35.3124 19.5347 34.4507 19.3123C33.5889 19.0898 32.6707 19.2061 31.8979 19.6354C31.467 19.8752 31.0974 20.205 30.8164 20.6006L28.723 17.1184C28.4275 16.6263 28.0028 16.2177 27.4915 15.9336C26.9802 15.6495 26.4003 15.5 25.81 15.5C25.2197 15.5 24.6398 15.6495 24.1285 15.9336C23.6172 16.2177 23.1925 16.6263 22.897 17.1184C22.2825 16.6525 21.5187 16.4072 20.7368 16.4248C19.9549 16.4424 19.2038 16.7217 18.6126 17.2148C18.0214 17.7078 17.627 18.3838 17.4972 19.1265C17.3674 19.8692 17.5104 20.6323 17.9015 21.2845L18.0925 21.6039C17.5953 21.641 17.1131 21.7854 16.6817 22.0263C15.909 22.4562 15.3452 23.164 15.1145 23.9941C14.8837 24.8242 15.0048 25.7086 15.4511 26.4528L20.258 34.4748C20.9496 35.635 21.8731 36.6517 22.9752 37.4661C24.0773 38.2805 25.3361 38.8765 26.6788 39.2195C27.5773 39.4506 28.5033 39.5674 29.4332 39.5667C31.288 39.5637 33.1093 39.0909 34.7145 38.1958C36.3196 37.3008 37.652 36.0149 38.578 34.4673C39.5041 32.9197 39.9911 31.1647 39.9903 29.3786C39.9895 27.5924 39.5009 25.8379 38.5735 24.291V24.2933ZM37.7732 31.5423C37.3299 33.1338 36.4067 34.5629 35.1202 35.6491C33.8337 36.7354 32.2416 37.4299 30.5452 37.6449C28.8489 37.8599 27.1244 37.5858 25.5898 36.8572C24.0552 36.1285 22.7794 34.9781 21.9236 33.5513L17.1167 25.5293C16.9337 25.2109 16.8879 24.836 16.989 24.4854C17.0901 24.1347 17.3301 23.8363 17.6573 23.6543C17.9846 23.4723 18.3729 23.4213 18.7389 23.5122C19.1048 23.6032 19.419 23.8288 19.6139 24.1406L21.9248 27.9965C21.9861 28.1052 22.0693 28.2009 22.1696 28.2781C22.2699 28.3552 22.3853 28.4123 22.5088 28.4458C22.6324 28.4794 22.7617 28.4887 22.8891 28.4734C23.0165 28.458 23.1394 28.4183 23.2505 28.3564C23.3617 28.2946 23.4589 28.2119 23.5363 28.1133C23.6138 28.0147 23.67 27.9022 23.7015 27.7824C23.7331 27.6625 23.7394 27.5378 23.7201 27.4156C23.7008 27.2934 23.6563 27.1761 23.5892 27.0707L19.5658 20.3587C19.467 20.2006 19.4019 20.0252 19.3743 19.8426C19.3467 19.6601 19.3571 19.474 19.405 19.2954C19.4528 19.1167 19.5372 18.9491 19.6531 18.8022C19.7691 18.6553 19.9142 18.5321 20.0801 18.4398C20.246 18.3476 20.4294 18.2881 20.6194 18.2648C20.8095 18.2415 21.0025 18.255 21.1871 18.3043C21.3717 18.3537 21.5442 18.438 21.6946 18.5523C21.845 18.6666 21.9703 18.8086 22.063 18.97L25.8148 25.2191C25.8761 25.3278 25.9593 25.4235 26.0596 25.5007C26.1599 25.5778 26.2753 25.6349 26.3988 25.6684C26.5224 25.702 26.6517 25.7113 26.7791 25.696C26.9064 25.6806 27.0294 25.6409 27.1405 25.579C27.2517 25.5172 27.3489 25.4345 27.4263 25.3359C27.5038 25.2374 27.56 25.1248 27.5915 25.005C27.6231 24.8852 27.6294 24.7604 27.6101 24.6382C27.5908 24.516 27.5463 24.3987 27.4792 24.2933L24.5614 19.4329C24.4626 19.2748 24.3975 19.0994 24.3698 18.9168C24.3422 18.7343 24.3527 18.5482 24.4005 18.3696C24.4484 18.1909 24.5328 18.0233 24.6487 17.8764C24.7646 17.7295 24.9098 17.6063 25.0757 17.514C25.2416 17.4218 25.4249 17.3623 25.615 17.339C25.8051 17.3157 25.998 17.3292 26.1826 17.3785C26.3672 17.4279 26.5398 17.5122 26.6902 17.6265C26.8406 17.7408 26.9658 17.8828 27.0586 18.0442L31.0748 24.7447C30.1393 25.6594 29.5618 26.858 29.4404 28.1366C29.319 29.4151 29.6613 30.6946 30.409 31.7576C30.5524 31.9608 30.7738 32.1008 31.0244 32.1468C31.275 32.1928 31.5343 32.141 31.7453 32.0029C31.9563 31.8648 32.1017 31.6516 32.1495 31.4103C32.1972 31.169 32.1435 30.9192 32.0001 30.7161C31.4479 29.9287 31.2312 28.967 31.3947 28.03C31.5582 27.093 32.0895 26.2524 32.8785 25.682C33.0666 25.5463 33.1965 25.3488 33.2437 25.127C33.2909 24.9053 33.252 24.6746 33.1345 24.4785L32.3318 23.1361C32.2297 22.978 32.1616 22.8018 32.1317 22.6179C32.1017 22.4339 32.1105 22.2461 32.1574 22.0655C32.2044 21.8849 32.2885 21.7153 32.4049 21.5666C32.5213 21.418 32.6675 21.2934 32.8349 21.2003C33.0023 21.1071 33.1874 21.0474 33.3793 21.0245C33.5711 21.0017 33.7658 21.0162 33.9517 21.0672C34.1376 21.1183 34.311 21.2048 34.4615 21.3216C34.612 21.4385 34.7365 21.5833 34.8277 21.7474L36.9079 25.2191C37.4787 26.1654 37.849 27.2112 37.9975 28.2962C38.146 29.3811 38.0698 30.4836 37.7732 31.54V31.5423ZM34.2569 16.3905C34.3216 16.1534 34.4813 15.9507 34.7009 15.8268C34.9206 15.703 35.1822 15.668 35.4286 15.7297C36.3468 15.9627 37.2077 16.3692 37.9613 16.9255C38.715 17.4817 39.3463 18.1767 39.8185 18.97L39.8582 19.036C39.9253 19.1414 39.9698 19.2586 39.9891 19.3808C40.0084 19.5031 40.0021 19.6278 39.9705 19.7476C39.9389 19.8674 39.8827 19.98 39.8053 20.0786C39.7278 20.1772 39.6306 20.2598 39.5195 20.3216C39.4083 20.3835 39.2854 20.4232 39.158 20.4386C39.0306 20.454 38.9013 20.4446 38.7778 20.411C38.6542 20.3775 38.5389 20.3205 38.4386 20.2433C38.3383 20.1661 38.255 20.0704 38.1938 19.9618L38.1541 19.8958C37.8075 19.3144 37.3443 18.8053 36.7913 18.398C36.2384 17.9907 35.6069 17.6934 34.9335 17.5234C34.688 17.4592 34.479 17.3039 34.3522 17.0916C34.2253 16.8792 34.1911 16.6271 34.2569 16.3905ZM21.8359 40.1476C21.6781 40.3403 21.4473 40.4647 21.1942 40.4936C20.9412 40.5224 20.6866 40.4534 20.4864 40.3016C19.0484 39.2078 17.841 37.8593 16.9293 36.3287C16.8661 36.2234 16.8252 36.1071 16.8087 35.9866C16.7922 35.866 16.8006 35.7435 16.8333 35.6261C16.866 35.5086 16.9224 35.3985 16.9993 35.302C17.0761 35.2056 17.172 35.1246 17.2814 35.0638C17.3907 35.0031 17.5115 34.9636 17.6367 34.9478C17.7618 34.9319 17.8891 34.9399 18.011 34.9714C18.133 35.0029 18.2473 35.0572 18.3475 35.1313C18.4477 35.2053 18.5317 35.2976 18.5948 35.4029C19.3851 36.7279 20.4309 37.8952 21.6761 38.8423C21.776 38.9176 21.8594 39.0112 21.9216 39.1177C21.9838 39.2242 22.0234 39.3415 22.0383 39.4629C22.0531 39.5842 22.0429 39.7072 22.0082 39.8248C21.9734 39.9423 21.9149 40.052 21.8359 40.1476Z" fill="white"/>
<path d="M83.352 20.496C83.3307 22.5013 82.5627 24.1867 81.048 25.552C79.5333 26.9173 77.7413 27.6 75.672 27.6H69.56V37.392H67V12.784H74.904C77.336 12.784 79.3627 13.52 80.984 14.992C82.6053 16.4427 83.3947 18.2773 83.352 20.496ZM80.824 19.92C80.76 18.512 80.152 17.36 79 16.464C77.8693 15.5467 76.5467 15.088 75.032 15.088H69.56V25.36H75.192C76.7707 25.36 78.104 24.8693 79.192 23.888C80.3653 22.864 80.9093 21.5413 80.824 19.92ZM101.533 28.272C101.533 30.896 100.573 33.168 98.6533 35.088C96.7546 36.9867 94.4933 37.8933 91.8693 37.808C89.3306 37.744 87.1759 36.784 85.4053 34.928C83.6559 33.072 82.7812 30.864 82.7812 28.304C82.7812 25.6373 83.7306 23.3547 85.6293 21.456C87.5279 19.536 89.7893 18.6187 92.4133 18.704C94.9519 18.7893 97.1066 19.7707 98.8773 21.648C100.648 23.504 101.533 25.712 101.533 28.272ZM99.1013 28.08C99.0373 26.16 98.3439 24.5173 97.0213 23.152C95.7199 21.7867 94.1413 21.104 92.2853 21.104C90.3439 21.0827 88.6906 21.7653 87.3253 23.152C85.9599 24.5173 85.2666 26.1707 85.2453 28.112C85.2026 30.032 85.8319 31.7173 87.1333 33.168C88.4346 34.5973 90.0239 35.344 91.9013 35.408C93.9066 35.5147 95.6133 34.8213 97.0213 33.328C98.4506 31.8347 99.1439 30.0853 99.1013 28.08ZM110.656 37.776C106.219 37.776 104 35.888 104 32.112V12.752H106.464V19.12H110.656V21.392H106.464V31.696C106.464 34.4053 107.861 35.76 110.656 35.76V37.776ZM119.853 21.392H115.277V37.392H112.812V18.8C112.812 16.8587 113.41 15.3653 114.605 14.32C115.799 13.2533 117.335 12.72 119.213 12.72H119.853V14.896L119.213 14.928C117.933 14.992 117.026 15.2907 116.493 15.824C115.682 16.6773 115.277 17.5307 115.277 18.384V19.152H119.853V21.392ZM137.94 28.272C137.94 30.896 136.98 33.168 135.06 35.088C133.161 36.9867 130.9 37.8933 128.276 37.808C125.737 37.744 123.582 36.784 121.812 34.928C120.062 33.072 119.188 30.864 119.188 28.304C119.188 25.6373 120.137 23.3547 122.036 21.456C123.934 19.536 126.196 18.6187 128.82 18.704C131.358 18.7893 133.513 19.7707 135.284 21.648C137.054 23.504 137.94 25.712 137.94 28.272ZM135.508 28.08C135.444 26.16 134.75 24.5173 133.428 23.152C132.126 21.7867 130.548 21.104 128.692 21.104C126.75 21.0827 125.097 21.7653 123.732 23.152C122.366 24.5173 121.673 26.1707 121.652 28.112C121.609 30.032 122.238 31.7173 123.54 33.168C124.841 34.5973 126.43 35.344 128.308 35.408C130.313 35.5147 132.02 34.8213 133.428 33.328C134.857 31.8347 135.55 30.0853 135.508 28.08ZM142.838 37.392H140.406V12.72H142.838V37.392ZM147.994 16.976H145.594V12.72H147.994V16.976ZM147.994 37.392H145.594V19.152H147.994V37.392ZM169.44 28.272C169.44 30.896 168.48 33.168 166.56 35.088C164.661 36.9867 162.4 37.8933 159.776 37.808C157.237 37.744 155.082 36.784 153.312 34.928C151.562 33.072 150.688 30.864 150.688 28.304C150.688 25.6373 151.637 23.3547 153.536 21.456C155.434 19.536 157.696 18.6187 160.32 18.704C162.858 18.7893 165.013 19.7707 166.784 21.648C168.554 23.504 169.44 25.712 169.44 28.272ZM167.008 28.08C166.944 26.16 166.25 24.5173 164.928 23.152C163.626 21.7867 162.048 21.104 160.192 21.104C158.25 21.0827 156.597 21.7653 155.232 23.152C153.866 24.5173 153.173 26.1707 153.152 28.112C153.109 30.032 153.738 31.7173 155.04 33.168C156.341 34.5973 157.93 35.344 159.808 35.408C161.813 35.5147 163.52 34.8213 164.928 33.328C166.357 31.8347 167.05 30.0853 167.008 28.08Z" fill="#0D3E4C"/>
</svg>
